<svg version="1.2" xmlns="http://www.w3.org/2000/svg" viewBox="0 0 622 206" width="622" height="206">
	<title>taggiusto-logo copia-svg</title>
	<defs>
		<clipPath clipPathUnits="userSpaceOnUse" id="cp1">
			<path d="m-96-96h816v380.02h-816z"/>
		</clipPath>
	</defs>
	<style>
		.s0 { fill: #cc0300 } 
		.s1 { fill: #878787 } 
	</style>
	<g id="g8">
		<g id="g10">
			<g id="Clip-Path: g12" clip-path="url(#cp1)">
				<g id="g12">
					<g id="g18">
						<path id="path20" fill-rule="evenodd" class="s0" d="m158.1 67.3h15v63h-14.7l-0.8-9.2c-3.6 7.4-13.4 11-20.4 11.1-18.7 0.1-32.4-11.4-32.4-33.5 0-21.7 14.4-33 32.8-32.9 8.4 0 16.4 4 20 10.2zm-37.8 31.4c0 12 8.3 19.2 18.7 19.2 24.5 0 24.5-38.2 0-38.2-10.4 0-18.7 7-18.7 19z"/>
					</g>
					<path id="path22" fill-rule="evenodd" class="s0" d="m327.3 67.1h15.6v63.2h-15.6zm17-17.5c0 12.1-18.4 12.1-18.4 0 0-12.2 18.4-12.2 18.4 0z"/>
					<g id="g24">
						<path id="path26" class="s0" d="m372.9 67.3v33c0 9.5 5.2 16.8 15.2 16.8 9.5 0 16.1-8 16.1-17.6v-32.2h15.4v63.1h-13.9l-1-8.6c-6.5 6.4-12.5 9.5-21.4 9.5-15 0-26-11.4-26-30.9v-33.1z"/>
					</g>
					<g id="g28">
						<path id="path30" class="s0" d="m474.6 84.1c-4.5-4.3-9.6-5.7-15.6-5.7-7.4 0-11.5 2.3-11.5 6.3 0 4.1 3.7 6.4 11.7 6.9 11.9 0.8 27 3.4 27 20.2 0 11.1-9.1 20.6-27.1 20.6-10 0-19.9-1.6-29.1-11.2l7.7-11.1c4.4 5 14.6 8.7 21.7 8.8 5.8 0.1 11.3-2.9 11.3-7.5 0-4.4-3.5-6.2-12.5-6.7-11.9-0.9-26-5.2-26-19.5 0-14.6 15-19.7 26.5-19.7 9.9 0 17.3 2 24.5 8.3z"/>
					</g>
					<g id="g32">
						<path id="path34" class="s0" d="m518.1 49.6v17.9h17.4v13.4h-17.5v27.2c0 6 3.3 8.9 8.2 8.9 2.4 0 5.2-0.8 7.5-1.9l4.3 13.3c-4.4 1.7-8.1 2.5-12.9 2.6-13.6 0.6-22.6-7.2-22.6-22.9v-27.2h-11.7v-13.4h11.7v-16.3z"/>
					</g>
					<g id="g36">
						<path id="path38" fill-rule="evenodd" class="s0" d="m609.7 98.9c0 18.1-12.4 32.8-32.8 32.8-20.4 0-32.7-14.7-32.7-32.8 0-18 12.5-32.8 32.5-32.8 20.1 0 33 14.8 33 32.8zm-49.9 0c0 9.5 5.7 18.5 17.1 18.5 11.3 0 17.1-9 17.1-18.5 0-9.5-6.7-18.7-17.1-18.7-11.3 0-17.1 9.2-17.1 18.7z"/>
					</g>
					<g id="g40">
						<path id="path42" fill-rule="evenodd" class="s0" d="m246.4 142c0 17.3-13.3 28-31.5 28-18.3 0-32-11.1-32-28h15.5c0 8.1 7.5 13.5 16.5 13.5 8.9 0 15.9-4.9 15.9-13.5 0-8.7-8.2-12.7-15.9-12.7-19.7 0-32-12-32-31.7 0-19.6 14.3-31.9 32-31.9q0.1 0 0.3 0 0 0 0.1 0 0.1 0 0.3 0c3.1 0.1 6.2 0.4 9.1 1.4 13.1 3.9 22.6 15.6 22.6 29.5 0 4.6-1.1 8.9-3 12.8-1.2 3.2-3.2 6.1-5.9 8.5q-2 2-4.3 3.6c9.8 5.3 12.3 12.6 12.3 20.5zm-15-44.5c0-9.9-7.4-17.9-16.6-17.9-9.2 0-16.7 8-16.7 17.9 0 9.9 7.5 17.9 16.7 17.9 9.2 0 16.6-8 16.6-17.9z"/>
					</g>
					<g id="g44">
						<path id="path46" fill-rule="evenodd" class="s0" d="m317.9 142c0 17.3-13.3 28-31.6 28-18.2 0-31.9-11.1-31.9-28h15.4c0 8.1 7.6 13.5 16.5 13.5 9 0 16-4.9 16-13.5 0-8.7-8.2-12.7-16-12.7-19.6 0-31.9-12-31.9-31.7 0-19.6 14.3-31.9 31.9-31.9q0.2 0 0.4 0 0 0 0.1 0 0.1 0 0.2 0c3.1 0.1 6.3 0.4 9.2 1.4 13.1 3.9 22.6 15.6 22.6 29.5 0 4.6-1.1 8.9-3 12.8-1.3 3.2-3.2 6.1-5.9 8.5q-2 2-4.3 3.6c9.8 5.3 12.3 12.6 12.3 20.5zm-15-44.5c0-9.9-7.4-17.9-16.6-17.9-9.2 0-16.7 8-16.7 17.9 0 9.9 7.5 17.9 16.7 17.9 9.2 0 16.6-8 16.6-17.9z"/>
					</g>
					<g id="g48">
						<path id="path50" class="s1" d="m44.4 87c-0.5-0.9 0-2.3 1.1-4q1-1.4 2.3-2.9 1.9-2.2 4.7-4.7v-0.2c2.6-2.4 5.4-4.8 8-6.8l-8.2 2.6v-10.2l28.9-11.1v8.4c2.9-0.8 4.8-0.8 5.4 0.4 1 1.9-2.2 6.2-7.7 11.2v13c3.6-1.2 6.1-1.3 6.8 0 0.8 1.7-1.9 5.6-6.8 10.2l-0.1 13.9c3.1-1 5.1-1 5.7 0.2 0.8 1.5-1.5 4.9-5.7 8.9v14.8c2.6-0.8 4.5-0.8 5 0.3 0.7 1.4-1.3 4.5-5.1 8.1v12.5l-26 10-0.2-5.7c-2.8 0.8-4.8 0.8-5.3-0.3-0.7-1.4 1.3-4.5 5.1-8.2 7.7-7.2 17.3-13.6 17.3-13.6-6.3 1.3-12.3 4.4-17.1 7.6v-8.7c-3.2 1-5.4 1.1-6-0.1-0.8-1.6 1.6-5.1 6-9.2 7.7-7.3 17.3-13.6 17.3-13.6-6.4 1.2-12.5 4.4-17.3 7.7v-7.8c-3.8 1.3-6.5 1.5-7.2 0.2-0.9-1.8 2.1-5.9 7.2-10.6v-0.1c7.6-7 16.9-13.1 16.9-13.1-6.3 1.2-12.2 4.2-16.9 7.4v-6.9c-4.3 1.6-7.4 1.9-8.1 0.4z"/>
					</g>
					<g id="g52">
						<path id="path54" class="s0" d="m78.7 157.3v0.6 3.8l-12.6 36.7-11.6-31.7z"/>
					</g>
					<g id="g56">
						<path id="path58" class="s0" d="m120.3 25.9c0 7.8-6.3 14.1-14 14.1h-25.1v3.9l-28.9 11.1v-15h-26.8c-7.8 0-14.1-6.3-14.1-14.1 0-7.7 6.3-14 14.1-14h80.8c7.7 0 14 6.3 14 14z"/>
					</g>
				</g>
			</g>
		</g>
	</g>
</svg>